<svg width="217" height="85" viewBox="0 0 217 85" fill="none" xmlns="http://www.w3.org/2000/svg">
<path d="M18 34H1.05V0.499999H18C29.05 0.499999 36.05 6.65 36.05 17.25C36.05 27.85 29.05 34 18 34ZM18 8.95H10.45V25.55H18C23.95 25.55 26 24.8 26 17.25C26 9.7 23.95 8.95 18 8.95ZM46.6871 34.5C40.9871 34.5 37.7871 31.9 37.7871 27.6C37.7871 24.05 40.2371 21.5 45.9371 20.95L56.1871 19.95V19.45C56.1871 16.9 55.0871 16.5 51.7371 16.5C48.6371 16.5 47.6871 17.1 47.6871 19.2V19.4H38.2871V19.3C38.2871 12.6 43.8871 8.3 52.4371 8.3C61.2371 8.3 65.4871 12.6 65.4871 19.65V34H56.6871V28.7H56.1871C55.2371 32.25 52.1371 34.5 46.6871 34.5ZM47.2371 27C47.2371 27.8 48.0371 27.95 49.4871 27.95C54.0371 27.95 55.8871 27.4 56.1371 25.15L48.4371 26.05C47.5871 26.15 47.2371 26.45 47.2371 27ZM77.6734 34H68.2734V8.8H77.0734V15.4H77.5734C78.2734 11.25 80.8734 8.3 85.8734 8.3C91.4234 8.3 93.6234 11.95 93.6234 17V22H84.2234V19.05C84.2234 16.95 83.4234 16.2 80.9734 16.2C78.4234 16.2 77.6734 16.95 77.6734 18.95V34ZM109.167 34.5C100.267 34.5 95.5172 31.05 95.5172 25.25V25.05H104.917V25.55C104.917 26.95 105.817 27.1 109.217 27.1C112.467 27.1 112.967 26.75 112.967 25.9C112.967 25.1 112.567 24.9 110.217 24.65L102.917 23.85C97.7172 23.3 94.9172 20.85 94.9172 16.6C94.9172 12.15 98.4672 8.3 107.917 8.3C116.667 8.3 121.317 11.45 121.317 17.65V17.85H111.917V17.55C111.917 16.25 111.417 15.65 107.617 15.65C104.567 15.65 104.167 16.05 104.167 17C104.167 17.7 104.567 18.05 107.517 18.35L112.517 18.9C119.867 19.7 122.217 22.15 122.217 26.4C122.217 31.1 117.517 34.5 109.167 34.5ZM133.875 34H124.475V0.499999H133.875V16.45H134.375C135.175 12.2 137.975 8.3 144.425 8.3C151.125 8.3 154.325 12.55 154.325 18.15V34H144.925V21.3C144.925 17.8 143.575 16.7 139.275 16.7C134.925 16.7 133.875 17.75 133.875 21V34ZM165.291 34.5C159.591 34.5 156.391 31.9 156.391 27.6C156.391 24.05 158.841 21.5 164.541 20.95L174.791 19.95V19.45C174.791 16.9 173.691 16.5 170.341 16.5C167.241 16.5 166.291 17.1 166.291 19.2V19.4H156.891V19.3C156.891 12.6 162.491 8.3 171.041 8.3C179.841 8.3 184.091 12.6 184.091 19.65V34H175.291V28.7H174.791C173.841 32.25 170.741 34.5 165.291 34.5ZM165.841 27C165.841 27.8 166.641 27.95 168.091 27.95C172.641 27.95 174.491 27.4 174.741 25.15L167.041 26.05C166.191 26.15 165.841 26.45 165.841 27ZM196.277 34H186.877V8.8H195.677V16.45H196.177C196.727 12.25 199.477 8.3 206.227 8.3C213.027 8.3 216.227 12.4 216.227 17.85V34H206.827V21.3C206.827 17.8 205.527 16.7 201.427 16.7C197.277 16.7 196.277 17.75 196.277 21V34ZM22.95 84H0.5V50.5H21.8C29.05 50.5 32.65 53.35 32.65 58.6C32.65 62.9 30.4 65.95 24.3 66.2V66.7C31 66.95 34.2 70.05 34.2 74.7C34.2 80.35 30.95 84 22.95 84ZM9.85 58.95V63.2H20.8C22.7 63.2 23.25 62.65 23.25 61.1C23.25 59.55 22.5 58.95 20.55 58.95H9.85ZM9.85 70.9V75.55H21.75C24 75.55 24.7 75.1 24.7 73.2C24.7 71.35 24.05 70.9 21.75 70.9H9.85ZM45.5934 84H36.1934V50.5H45.5934V66.45H46.0934C46.8934 62.2 49.6934 58.3 56.1434 58.3C62.8434 58.3 66.0434 62.55 66.0434 68.15V84H56.6434V71.3C56.6434 67.8 55.2934 66.7 50.9934 66.7C46.6434 66.7 45.5934 67.75 45.5934 71V84ZM78.2594 56.5H68.8594V50.5H78.2594V56.5ZM78.2594 84H68.8594V58.8H78.2594V84ZM90.6617 84H81.2617V58.8H90.0617V66.45H90.5617C91.1117 62.25 93.4117 58.3 99.7617 58.3C105.712 58.3 108.562 61.9 109.062 66.45H109.562C110.112 62.25 112.512 58.3 119.062 58.3C125.512 58.3 128.562 62.4 128.562 67.85V84H119.162V71.3C119.162 67.8 118.162 66.7 114.262 66.7C110.412 66.7 109.612 67.75 109.612 71V84H100.212V71.3C100.212 67.8 99.2117 66.7 95.3117 66.7C91.4617 66.7 90.6617 67.75 90.6617 71V84ZM139.509 84.5C133.809 84.5 130.609 81.9 130.609 77.6C130.609 74.05 133.059 71.5 138.759 70.95L149.009 69.95V69.45C149.009 66.9 147.909 66.5 144.559 66.5C141.459 66.5 140.509 67.1 140.509 69.2V69.4H131.109V69.3C131.109 62.6 136.709 58.3 145.259 58.3C154.059 58.3 158.309 62.6 158.309 69.65V84H149.509V78.7H149.009C148.059 82.25 144.959 84.5 139.509 84.5ZM140.059 77C140.059 77.8 140.859 77.95 142.309 77.95C146.859 77.95 148.709 77.4 148.959 75.15L141.259 76.05C140.409 76.15 140.059 76.45 140.059 77ZM170.496 84H161.096V58.8H169.896V66.45H170.396C170.946 62.25 173.696 58.3 180.446 58.3C187.246 58.3 190.446 62.4 190.446 67.85V84H181.046V71.3C181.046 67.8 179.746 66.7 175.646 66.7C171.496 66.7 170.496 67.75 170.496 71V84ZM202.625 56.5H193.225V50.5H202.625V56.5ZM202.625 84H193.225V58.8H202.625V84Z" fill="url(#paint0_linear_2113_51)"/>
<defs>
<linearGradient id="paint0_linear_2113_51" x1="-1" y1="42.8452" x2="225" y2="42.8452" gradientUnits="userSpaceOnUse">
<stop offset="0.140625" stop-color="#B16CEA"/>
<stop offset="0.447917" stop-color="#FF5E69"/>
<stop offset="0.71875" stop-color="#FF8A56"/>
<stop offset="1" stop-color="#FFA84B"/>
</linearGradient>
</defs>
</svg>
