<svg width="428" height="35" viewBox="0 0 428 35" fill="none" xmlns="http://www.w3.org/2000/svg">
<path d="M17 34H0.0500001V0.499999H17C28.05 0.499999 35.05 6.65 35.05 17.25C35.05 27.85 28.05 34 17 34ZM17 8.95H9.45V25.55H17C22.95 25.55 25 24.8 25 17.25C25 9.7 22.95 8.95 17 8.95ZM45.6871 34.5C39.9871 34.5 36.7871 31.9 36.7871 27.6C36.7871 24.05 39.2371 21.5 44.9371 20.95L55.1871 19.95V19.45C55.1871 16.9 54.0871 16.5 50.7371 16.5C47.6371 16.5 46.6871 17.1 46.6871 19.2V19.4H37.2871V19.3C37.2871 12.6 42.8871 8.3 51.4371 8.3C60.2371 8.3 64.4871 12.6 64.4871 19.65V34H55.6871V28.7H55.1871C54.2371 32.25 51.1371 34.5 45.6871 34.5ZM46.2371 27C46.2371 27.8 47.0371 27.95 48.4871 27.95C53.0371 27.95 54.8871 27.4 55.1371 25.15L47.4371 26.05C46.5871 26.15 46.2371 26.45 46.2371 27ZM76.6734 34H67.2734V8.8H76.0734V15.4H76.5734C77.2734 11.25 79.8734 8.3 84.8734 8.3C90.4234 8.3 92.6234 11.95 92.6234 17V22H83.2234V19.05C83.2234 16.95 82.4234 16.2 79.9734 16.2C77.4234 16.2 76.6734 16.95 76.6734 18.95V34ZM108.167 34.5C99.2672 34.5 94.5172 31.05 94.5172 25.25V25.05H103.917V25.55C103.917 26.95 104.817 27.1 108.217 27.1C111.467 27.1 111.967 26.75 111.967 25.9C111.967 25.1 111.567 24.9 109.217 24.65L101.917 23.85C96.7172 23.3 93.9172 20.85 93.9172 16.6C93.9172 12.15 97.4672 8.3 106.917 8.3C115.667 8.3 120.317 11.45 120.317 17.65V17.85H110.917V17.55C110.917 16.25 110.417 15.65 106.617 15.65C103.567 15.65 103.167 16.05 103.167 17C103.167 17.7 103.567 18.05 106.517 18.35L111.517 18.9C118.867 19.7 121.217 22.15 121.217 26.4C121.217 31.1 116.517 34.5 108.167 34.5ZM132.875 34H123.475V0.499999H132.875V16.45H133.375C134.175 12.2 136.975 8.3 143.425 8.3C150.125 8.3 153.325 12.55 153.325 18.15V34H143.925V21.3C143.925 17.8 142.575 16.7 138.275 16.7C133.925 16.7 132.875 17.75 132.875 21V34ZM164.291 34.5C158.591 34.5 155.391 31.9 155.391 27.6C155.391 24.05 157.841 21.5 163.541 20.95L173.791 19.95V19.45C173.791 16.9 172.691 16.5 169.341 16.5C166.241 16.5 165.291 17.1 165.291 19.2V19.4H155.891V19.3C155.891 12.6 161.491 8.3 170.041 8.3C178.841 8.3 183.091 12.6 183.091 19.65V34H174.291V28.7H173.791C172.841 32.25 169.741 34.5 164.291 34.5ZM164.841 27C164.841 27.8 165.641 27.95 167.091 27.95C171.641 27.95 173.491 27.4 173.741 25.15L166.041 26.05C165.191 26.15 164.841 26.45 164.841 27ZM195.277 34H185.877V8.8H194.677V16.45H195.177C195.727 12.25 198.477 8.3 205.227 8.3C212.027 8.3 215.227 12.4 215.227 17.85V34H205.827V21.3C205.827 17.8 204.527 16.7 200.427 16.7C196.277 16.7 195.277 17.75 195.277 21V34ZM247.438 34H224.988V0.499999H246.288C253.538 0.499999 257.138 3.35 257.138 8.6C257.138 12.9 254.888 15.95 248.788 16.2V16.7C255.488 16.95 258.688 20.05 258.688 24.7C258.688 30.35 255.438 34 247.438 34ZM234.338 8.95V13.2H245.288C247.188 13.2 247.738 12.65 247.738 11.1C247.738 9.55 246.988 8.95 245.038 8.95H234.338ZM234.338 20.9V25.55H246.238C248.488 25.55 249.188 25.1 249.188 23.2C249.188 21.35 248.538 20.9 246.238 20.9H234.338ZM270.082 34H260.682V0.499999H270.082V16.45H270.582C271.382 12.2 274.182 8.3 280.632 8.3C287.332 8.3 290.532 12.55 290.532 18.15V34H281.132V21.3C281.132 17.8 279.782 16.7 275.482 16.7C271.132 16.7 270.082 17.75 270.082 21V34ZM302.748 6.5H293.348V0.499999H302.748V6.5ZM302.748 34H293.348V8.8H302.748V34ZM315.15 34H305.75V8.8H314.55V16.45H315.05C315.6 12.25 317.9 8.3 324.25 8.3C330.2 8.3 333.05 11.9 333.55 16.45H334.05C334.6 12.25 337 8.3 343.55 8.3C350 8.3 353.05 12.4 353.05 17.85V34H343.65V21.3C343.65 17.8 342.65 16.7 338.75 16.7C334.9 16.7 334.1 17.75 334.1 21V34H324.7V21.3C324.7 17.8 323.7 16.7 319.8 16.7C315.95 16.7 315.15 17.75 315.15 21V34ZM363.998 34.5C358.298 34.5 355.098 31.9 355.098 27.6C355.098 24.05 357.548 21.5 363.248 20.95L373.498 19.95V19.45C373.498 16.9 372.398 16.5 369.048 16.5C365.948 16.5 364.998 17.1 364.998 19.2V19.4H355.598V19.3C355.598 12.6 361.198 8.3 369.748 8.3C378.548 8.3 382.798 12.6 382.798 19.65V34H373.998V28.7H373.498C372.548 32.25 369.448 34.5 363.998 34.5ZM364.548 27C364.548 27.8 365.348 27.95 366.798 27.95C371.348 27.95 373.198 27.4 373.448 25.15L365.748 26.05C364.898 26.15 364.548 26.45 364.548 27ZM394.984 34H385.584V8.8H394.384V16.45H394.884C395.434 12.25 398.184 8.3 404.934 8.3C411.734 8.3 414.934 12.4 414.934 17.85V34H405.534V21.3C405.534 17.8 404.234 16.7 400.134 16.7C395.984 16.7 394.984 17.75 394.984 21V34ZM427.113 6.5H417.713V0.499999H427.113V6.5ZM427.113 34H417.713V8.8H427.113V34Z" fill="url(#paint0_linear_2113_51)"/>
<defs>
<linearGradient id="paint0_linear_2113_51" x1="-2" y1="17.9226" x2="429" y2="17.9226" gradientUnits="userSpaceOnUse">
<stop offset="0.140625" stop-color="#B16CEA"/>
<stop offset="0.447917" stop-color="#FF5E69"/>
<stop offset="0.71875" stop-color="#FF8A56"/>
<stop offset="1" stop-color="#FFA84B"/>
</linearGradient>
</defs>
</svg>
