<svg width="120" height="118" viewBox="0 0 120 118" fill="none" xmlns="http://www.w3.org/2000/svg">
<path d="M49.8247 34.0833H71.1747C79.308 34.0833 85.9163 40.6916 85.9163 48.8249V70.1749C85.9163 74.0847 84.3632 77.8343 81.5986 80.5988C78.834 83.3634 75.0844 84.9166 71.1747 84.9166H49.8247C41.6913 84.9166 35.083 78.3083 35.083 70.1749V48.8249C35.083 44.9152 36.6361 41.1656 39.4007 38.401C42.1653 35.6364 45.9149 34.0833 49.8247 34.0833ZM49.3163 39.1666C46.8896 39.1666 44.5623 40.1306 42.8463 41.8466C41.1304 43.5625 40.1663 45.8899 40.1663 48.3166V70.6832C40.1663 75.7412 44.2584 79.8332 49.3163 79.8332H71.683C74.1097 79.8332 76.4371 78.8692 78.153 77.1533C79.869 75.4373 80.833 73.11 80.833 70.6832V48.3166C80.833 43.2587 76.7409 39.1666 71.683 39.1666H49.3163ZM73.8434 42.9791C74.686 42.9791 75.4941 43.3138 76.09 43.9096C76.6858 44.5054 77.0205 45.3136 77.0205 46.1562C77.0205 46.9988 76.6858 47.8069 76.09 48.4027C75.4941 48.9985 74.686 49.3333 73.8434 49.3333C73.0008 49.3333 72.1927 48.9985 71.5969 48.4027C71.0011 47.8069 70.6663 46.9988 70.6663 46.1562C70.6663 45.3136 71.0011 44.5054 71.5969 43.9096C72.1927 43.3138 73.0008 42.9791 73.8434 42.9791ZM60.4997 46.7916C63.8701 46.7916 67.1025 48.1305 69.4858 50.5138C71.8691 52.897 73.208 56.1295 73.208 59.4999C73.208 62.8704 71.8691 66.1028 69.4858 68.4861C67.1025 70.8693 63.8701 72.2082 60.4997 72.2082C57.1292 72.2082 53.8968 70.8693 51.5135 68.4861C49.1303 66.1028 47.7913 62.8704 47.7913 59.4999C47.7913 56.1295 49.1303 52.897 51.5135 50.5138C53.8968 48.1305 57.1292 46.7916 60.4997 46.7916ZM60.4997 51.8749C58.4774 51.8749 56.5379 52.6783 55.108 54.1082C53.678 55.5382 52.8747 57.4776 52.8747 59.4999C52.8747 61.5222 53.678 63.4616 55.108 64.8916C56.5379 66.3216 58.4774 67.1249 60.4997 67.1249C62.5219 67.1249 64.4614 66.3216 65.8914 64.8916C67.3213 63.4616 68.1247 61.5222 68.1247 59.4999C68.1247 57.4776 67.3213 55.5382 65.8914 54.1082C64.4614 52.6783 62.5219 51.8749 60.4997 51.8749Z" fill="#F0F2F5"/>
<path d="M118 58.6425C118 89.8824 92.0759 115.285 60 115.285C27.9241 115.285 2 89.8824 2 58.6425C2 27.4026 27.9241 2 60 2C92.0759 2 118 27.4026 118 58.6425Z" stroke="url(#paint0_linear_2110_42)" stroke-width="4"/>
<defs>
<linearGradient id="paint0_linear_2110_42" x1="60" y1="0" x2="60" y2="117.285" gradientUnits="userSpaceOnUse">
<stop stop-color="#FFA84B"/>
<stop offset="1" stop-color="#B16CEA"/>
</linearGradient>
</defs>
</svg>
