<svg width="120" height="118" viewBox="0 0 120 118" fill="none" xmlns="http://www.w3.org/2000/svg">
<path d="M47.6403 41.7084C47.6396 43.0566 47.1034 44.3493 46.1496 45.3021C45.1958 46.255 43.9026 46.7899 42.5544 46.7892C41.2062 46.7886 39.9135 46.2523 38.9607 45.2986C38.0079 44.3448 37.473 43.0515 37.4736 41.7034C37.4743 40.3552 38.0105 39.0625 38.9643 38.1096C39.9181 37.1568 41.2113 36.6219 42.5595 36.6226C43.9077 36.6232 45.2004 37.1594 46.1532 38.1132C47.1061 39.067 47.641 40.3603 47.6403 41.7084ZM47.7928 50.5534H37.6261V82.3751H47.7928V50.5534ZM63.8561 50.5534H53.7403V82.3751H63.7545V65.6764C63.7545 56.3739 75.8782 55.5097 75.8782 65.6764V82.3751H85.9178V62.2197C85.9178 46.5376 67.9736 47.1222 63.7545 54.8234L63.8561 50.5534Z" fill="#F0F2F5"/>
<path d="M118 58.6425C118 89.8824 92.0759 115.285 60 115.285C27.9241 115.285 2 89.8824 2 58.6425C2 27.4026 27.9241 2 60 2C92.0759 2 118 27.4026 118 58.6425Z" stroke="url(#paint0_linear_2107_41)" stroke-width="4"/>
<defs>
<linearGradient id="paint0_linear_2107_41" x1="60" y1="0" x2="60" y2="117.285" gradientUnits="userSpaceOnUse">
<stop stop-color="#FFA84B"/>
<stop offset="1" stop-color="#B16CEA"/>
</linearGradient>
</defs>
</svg>
