<svg width="242" height="206" viewBox="0 0 242 206" fill="none" xmlns="http://www.w3.org/2000/svg">
<path d="M10.7476 10.0393H60.3608C77.9399 10.0393 92.4781 13.5801 103.975 20.6618C115.556 27.6601 124.22 37.3661 129.969 49.7798C135.718 62.1935 138.592 76.3984 138.592 92.3946C138.592 108.474 135.718 122.721 129.969 135.135C124.22 147.548 115.556 157.296 103.975 164.378C92.4781 171.459 77.9399 175 60.3608 175H10.7476V10.0393ZM47.9887 43.1564V141.883H56.9866C66.401 141.883 74.1908 139.758 80.356 135.509C86.5212 131.177 91.1451 125.304 94.2277 117.889C97.3936 110.39 98.9766 101.976 98.9766 92.6446C98.9766 83.2301 97.4353 74.8155 94.3527 67.4006C91.3534 59.9024 86.7295 53.9871 80.481 49.6548C74.2325 45.3225 66.401 43.1564 56.9866 43.1564H47.9887Z" fill="white"/>
<path fill-rule="evenodd" clip-rule="evenodd" d="M113.372 10H169.984C179.398 10 188.104 11.2916 196.103 13.875C204.184 16.4583 210.682 20.7084 215.598 26.625C220.597 32.4584 223.096 40.375 223.096 50.375C223.096 56.9583 221.846 62.8333 219.347 67.9999C216.931 73.1667 213.682 77.4167 209.599 80.75C205.6 84 201.226 86.1667 196.477 87.2499C200.643 87.75 204.684 88.9584 208.6 90.875C212.599 92.7084 216.181 95.2917 219.347 98.625C222.596 101.875 225.137 105.959 226.97 110.875C228.886 115.708 229.844 121.458 229.844 128.125C229.844 133.77 229.069 139.012 227.517 143.85C225.439 143.291 223.255 142.993 221 142.993C207.193 142.993 196 154.185 196 167.993C196 169.566 196.145 171.106 196.424 172.6C190.592 174.2 184.028 175 176.732 175H113.372V10ZM150.738 145.125H167.734C173.066 145.125 177.399 144.334 180.731 142.75C184.147 141.083 186.646 138.75 188.229 135.75C189.812 132.667 190.604 129 190.604 124.75C190.604 118.083 188.521 113.208 184.355 110.125C180.273 106.959 174.524 105.375 167.109 105.375H150.738V145.125ZM150.738 76.125H165.86C170.275 76.125 173.941 75.3333 176.857 73.75C179.856 72.1666 182.106 69.9583 183.606 67.125C185.188 64.2083 185.98 60.8749 185.98 57.125C185.98 50.375 184.064 45.8334 180.231 43.5C176.399 41.0833 171.15 39.875 164.485 39.875H150.738V76.125Z" fill="white"/>
<circle cx="219" cy="166" r="9" fill="white"/>
</svg>
